<svg xmlns="http://www.w3.org/2000/svg" xmlns:xlink="http://www.w3.org/1999/xlink" width="184.045" height="41.335" viewBox="0 0 184.045 41.335">
  <defs>
    <linearGradient id="linear-gradient" x1="-0.106" y1="-1.102" x2="4.495" y2="-1.102" gradientUnits="objectBoundingBox">
      <stop offset="0.73" stop-color="#2af4ff"/>
      <stop offset="0.884" stop-color="#2af4ff"/>
    </linearGradient>
    <linearGradient id="linear-gradient-2" x1="-1.293" y1="-1.077" x2="3.333" y2="-1.077" xlink:href="#linear-gradient"/>
    <linearGradient id="linear-gradient-3" x1="-2.713" y1="-1.062" x2="2.359" y2="-1.062" xlink:href="#linear-gradient"/>
    <linearGradient id="linear-gradient-4" x1="-3.708" y1="-1.102" x2="1.049" y2="-1.102" xlink:href="#linear-gradient"/>
    <linearGradient id="linear-gradient-5" x1="4.895" y1="1.002" x2="0.027" y2="0.473" xlink:href="#linear-gradient"/>
  </defs>
  <g id="designrush-new-logo" transform="translate(0 -0.1)">
    <g id="Group_1" data-name="Group 1" transform="translate(32.283 16.845)">
      <path id="Path_1" data-name="Path 1" d="M42.8,22.7h6.185c4.978,0,8.448,3.394,8.448,7.769v.075c0,4.375-3.394,7.769-8.448,7.769H42.8V22.7m6.185,12.446a4.436,4.436,0,0,0,4.752-4.6v-.075a4.494,4.494,0,0,0-4.752-4.677h-2.64v9.353h2.64" transform="translate(-42.8 -22.398)" fill="#333"/>
      <path id="Path_2" data-name="Path 2" d="M66.2,22.7H78.193v3.017H69.745v3.168h7.467V31.9H69.745v3.243h8.6v3.017H66.275L66.2,22.7" transform="translate(-48.55 -22.398)" fill="#333"/>
      <path id="Path_3" data-name="Path 3" d="M84.9,35.9l2.112-2.414a7.539,7.539,0,0,0,4.752,1.886c1.433,0,2.263-.6,2.263-1.433v-.075c0-.905-.6-1.358-3.168-1.961-3.168-.83-5.28-1.659-5.28-4.752v-.075c0-2.791,2.263-4.677,5.582-4.677a9.219,9.219,0,0,1,5.883,1.961L95.234,27a7.2,7.2,0,0,0-4.149-1.509c-1.358,0-2.037.6-2.037,1.358v-.075c0,.981.679,1.358,3.394,2.037,3.243.83,4.978,1.961,4.978,4.6v.075c0,3.093-2.414,4.827-5.808,4.827A10.476,10.476,0,0,1,84.9,35.9" transform="translate(-53.145 -22.325)" fill="#333"/>
      <path id="Path_4" data-name="Path 4" d="M105.7,22.7h3.47V38.238H105.7V22.7" transform="translate(-58.256 -22.398)" fill="#333"/>
      <path id="Path_5" data-name="Path 5" d="M114.7,30.371A8.039,8.039,0,0,1,123,22.3a8.468,8.468,0,0,1,6.185,2.187l-2.187,2.64a5.88,5.88,0,0,0-4.149-1.584,4.658,4.658,0,0,0-4.526,4.827v.075a4.715,4.715,0,0,0,4.827,4.978,5.4,5.4,0,0,0,3.319-.981V32.257h-3.545V29.315h6.864v6.713A10.421,10.421,0,0,1,123,38.517c-4.978-.226-8.3-3.545-8.3-8.146" transform="translate(-60.467 -22.3)" fill="#333"/>
      <path id="Path_6" data-name="Path 6" d="M139.1,22.7h3.243l7.392,9.5V22.7h3.394V38.238h-2.942l-7.694-9.881v9.881H139.1V22.7Z" transform="translate(-66.463 -22.398)" fill="#333"/>
    </g>
    <g id="Group_2" data-name="Group 2" transform="translate(122.646 16.921)">
      <path id="Path_7" data-name="Path 7" d="M162.751,22.7h7.241a6.515,6.515,0,0,1,4.6,1.584,4.835,4.835,0,0,1,1.358,3.545V27.9a4.854,4.854,0,0,1-3.394,4.827l3.847,5.506H172.33l-3.394-4.978h-2.791v4.978H162.6V22.7h.151m7.015,7.467c1.735,0,2.64-.905,2.64-2.187V27.9c0-1.433-.981-2.187-2.715-2.187h-3.47v4.45h3.545" transform="translate(-162.6 -22.474)" fill="url(#linear-gradient)"/>
      <path id="Path_8" data-name="Path 8" d="M184.2,31.476v-8.9h3.47v8.75c0,2.565,1.282,3.771,3.394,3.771s3.394-1.282,3.394-3.771V22.5h3.47v8.75c0,4.677-2.715,7.015-6.939,7.015S184.2,36,184.2,31.476" transform="translate(-167.908 -22.425)" fill="url(#linear-gradient-2)"/>
      <path id="Path_9" data-name="Path 9" d="M205.7,35.9l2.112-2.414a7.539,7.539,0,0,0,4.752,1.886c1.433,0,2.263-.6,2.263-1.433v-.075c0-.905-.6-1.358-3.168-1.961-3.168-.83-5.28-1.659-5.28-4.752v-.075c0-2.791,2.263-4.677,5.582-4.677a9.219,9.219,0,0,1,5.883,1.961L216.034,27a7.2,7.2,0,0,0-4.149-1.509c-1.358,0-2.037.6-2.037,1.358v-.075c0,.981.679,1.358,3.394,2.037,3.243.83,4.978,1.961,4.978,4.6v.075c0,3.093-2.414,4.827-5.808,4.827A10.627,10.627,0,0,1,205.7,35.9" transform="translate(-173.19 -22.4)" fill="url(#linear-gradient-3)"/>
      <path id="Path_10" data-name="Path 10" d="M226.3,22.7h3.47v6.185h6.411V22.7h3.47V38.238h-3.47V32.053H229.77v6.185H226.3V22.7" transform="translate(-178.252 -22.474)" fill="url(#linear-gradient-4)"/>
    </g>
    <path id="Path_11" data-name="Path 11" d="M12.37,31.45c-.075,0-.075-.075,0,0l-.377-.226-.075-.075-8.9-6.336a.074.074,0,0,1-.075-.075l-.151-.151-.075-.075H2.565L0,22.7l5.054.754a1.4,1.4,0,0,1,.528.151.76.76,0,0,1,.226.075,2.511,2.511,0,0,1,.453.226c.151.075.226.151.377.226.075.075.226.151.226.226.075.075.151.075.226.151q.226.113.226.226a4.551,4.551,0,0,0,.6.6l4,5.657.075.075.377.377" transform="translate(0 -5.553)" fill="#2ad2ff"/>
    <path id="Path_12" data-name="Path 12" d="M12.395,40.2l-.377-.6-.075-.075L.1,22.7l2.565,1.81.453.3,8.9,6.336h.075l.3.226a.074.074,0,0,1,.075.075l.377-.3L24.84,22.7,12.772,39.6l-.075.075-.3.528" transform="translate(-0.025 -5.553)" fill="url(#linear-gradient-5)"/>
    <g id="Group_3" data-name="Group 3" transform="translate(8.976 17.071)">
      <path id="Path_13" data-name="Path 13" d="M15.294,28.927l-.377-.6-.075-.075L11.9,24.175l2.942.6h.075l.377.075.377-.075,2.866-.679-2.866,4.224V28.4l-.377.528" transform="translate(-11.9 -22.969)" fill="#2ad2ff"/>
      <path id="Path_14" data-name="Path 14" d="M28.921,22.6l-3.771.528-1.433.226a4.14,4.14,0,0,0-2.866,1.735l-4,5.733-.075.075-.377.528.453-.453.075-.075-.528.528,10.183-7.241L28.921,22.6" transform="translate(-13.006 -22.6)" fill="#2ad2ff"/>
    </g>
    <g id="Group_4" data-name="Group 4" transform="translate(6.864 0.1)">
      <path id="Path_15" data-name="Path 15" d="M16.492,5.154c0,3.319-5.733,5.054-5.733,8.6a4.526,4.526,0,0,0,.528,2.414S9.1,14.054,9.1,11.791s2.112-5.657,2.112-5.657c0,1.509.6,1.961,1.207,2.037h.075c.679,0,1.056-.528,1.056-1.282s-.83-1.509-.83-3.017c0-1.433,1.81-3.771,1.81-3.771a7.749,7.749,0,0,1,1.961,5.054" transform="translate(-9.1 -0.1)" fill="#2af4ff"/>
      <path id="Path_16" data-name="Path 16" d="M15.768,18.672A3.139,3.139,0,0,1,12.6,15.5v-.075c0-3.847,5.355-4.224,5.355-9.429a8.3,8.3,0,0,1,1.584,4.3c0,2.64-2.489,3.319-2.489,4.6,0,.528.226.905.981.905a.277.277,0,0,0,.226-.075,4.049,4.049,0,0,0,2.489-3.545c0,.075.754,6.487-4.978,6.487" transform="translate(-9.96 -1.55)" fill="#2af4ff"/>
    </g>
    <g id="Group_5" data-name="Group 5" transform="translate(0.981 0.1)">
      <path id="Path_17" data-name="Path 17" d="M18.819,15.806a.277.277,0,0,0,.226-.075c-.754.226-3.545.905-3.545-1.056,0-2.414,4.149-2.942,4.149-4.978A7.145,7.145,0,0,0,18.668,6a8.3,8.3,0,0,1,1.584,4.3c0,2.64-2.489,3.319-2.489,4.6a.959.959,0,0,0,1.056.905" transform="translate(-4.789 -1.55)" fill="#2ad2ff"/>
      <path id="Path_18" data-name="Path 18" d="M16.065,6.511c0,1.886-2.414,1.735-2.565,1.659h.226c.679,0,1.056-.528,1.056-1.282s-.83-1.509-.83-3.017c0-1.433,1.81-3.771,1.81-3.771a6.765,6.765,0,0,0-.981,3.093c0,1.735,1.282,1.886,1.282,3.319" transform="translate(-4.298 -0.1)" fill="#2ad2ff"/>
      <path id="Path_19" data-name="Path 19" d="M14.359,51.268,12.7,50.137h2.037l.679-2.037.6,2.037h2.037L16.4,51.268l.6,1.961L15.34,52.022l-1.735,1.207.754-1.961" transform="translate(-4.101 -11.894)" fill="#2ad2ff"/>
      <path id="Path_20" data-name="Path 20" d="M25.859,51.268,24.2,50.137h2.037l.679-2.037.6,2.037h2.037L27.9,51.268l.6,1.961L26.84,52.022l-1.735,1.207.754-1.961" transform="translate(-6.927 -11.894)" fill="#2ad2ff"/>
      <path id="Path_21" data-name="Path 21" d="M2.959,51.268,1.3,50.137H3.337L4.015,48.1l.6,2.037H6.655L5,51.268l.6,1.961L3.94,52.022,2.281,53.229l.679-1.961" transform="translate(-1.3 -11.894)" fill="#2ad2ff"/>
    </g>
  </g>
</svg>
