<svg xmlns="http://www.w3.org/2000/svg" width="156" height="156" viewBox="0 0 156 156">
  <g id="Group_184" data-name="Group 184" transform="translate(5623 -3110)">
    <rect id="Rectangle_71" data-name="Rectangle 71" width="156" height="156" transform="translate(-5623 3110)" fill="rgba(255,255,255,0)"/>
    <g id="Group_183" data-name="Group 183" transform="translate(-5745.466 3107.186)">
      <path id="Path_19" data-name="Path 19" d="M160.929,43.046a1.231,1.231,0,1,0-1.232,1.231A1.233,1.233,0,0,0,160.929,43.046Z" fill="#fff"/>
      <path id="Path_20" data-name="Path 20" d="M181.175,43.046a1.231,1.231,0,1,0-1.232,1.231A1.233,1.233,0,0,0,181.175,43.046Z" fill="#fff"/>
      <path id="Path_21" data-name="Path 21" d="M201.421,43.046a1.232,1.232,0,1,0-1.232,1.231A1.233,1.233,0,0,0,201.421,43.046Z" fill="#fff"/>
      <path id="Path_22" data-name="Path 22" d="M221.666,43.046a1.231,1.231,0,1,0-1.231,1.231A1.232,1.232,0,0,0,221.666,43.046Z" fill="#fff"/>
      <path id="Path_23" data-name="Path 23" d="M241.912,43.046a1.231,1.231,0,1,0-1.231,1.231A1.232,1.232,0,0,0,241.912,43.046Z" fill="#fff"/>
      <path id="Path_24" data-name="Path 24" d="M160.929,61.722a1.231,1.231,0,1,0-1.232,1.231A1.233,1.233,0,0,0,160.929,61.722Z" fill="#fff"/>
      <path id="Path_25" data-name="Path 25" d="M181.175,61.722a1.231,1.231,0,1,0-1.232,1.231A1.233,1.233,0,0,0,181.175,61.722Z" fill="#fff"/>
      <path id="Path_26" data-name="Path 26" d="M201.421,61.722a1.232,1.232,0,1,0-1.232,1.231A1.233,1.233,0,0,0,201.421,61.722Z" fill="#fff"/>
      <path id="Path_27" data-name="Path 27" d="M221.666,61.722a1.231,1.231,0,1,0-1.231,1.231A1.232,1.232,0,0,0,221.666,61.722Z" fill="#fff"/>
      <path id="Path_28" data-name="Path 28" d="M241.912,61.722a1.231,1.231,0,1,0-1.231,1.231A1.232,1.232,0,0,0,241.912,61.722Z" fill="#fff"/>
      <path id="Path_29" data-name="Path 29" d="M160.929,80.4a1.231,1.231,0,1,0-1.232,1.231A1.232,1.232,0,0,0,160.929,80.4Z" fill="#fff"/>
      <path id="Path_30" data-name="Path 30" d="M181.175,80.4a1.231,1.231,0,1,0-1.232,1.231A1.232,1.232,0,0,0,181.175,80.4Z" fill="#fff"/>
      <path id="Path_31" data-name="Path 31" d="M201.421,80.4a1.232,1.232,0,1,0-1.232,1.231A1.232,1.232,0,0,0,201.421,80.4Z" fill="#fff"/>
      <path id="Path_32" data-name="Path 32" d="M221.666,80.4a1.231,1.231,0,1,0-1.231,1.231A1.231,1.231,0,0,0,221.666,80.4Z" fill="#fff"/>
      <path id="Path_33" data-name="Path 33" d="M241.912,80.4a1.231,1.231,0,1,0-1.231,1.231A1.231,1.231,0,0,0,241.912,80.4Z" fill="#fff"/>
      <path id="Path_34" data-name="Path 34" d="M160.929,99.074a1.231,1.231,0,1,0-1.232,1.231A1.232,1.232,0,0,0,160.929,99.074Z" fill="#fff"/>
      <path id="Path_35" data-name="Path 35" d="M181.175,99.074a1.231,1.231,0,1,0-1.232,1.231A1.232,1.232,0,0,0,181.175,99.074Z" fill="#fff"/>
      <path id="Path_36" data-name="Path 36" d="M201.421,99.074a1.232,1.232,0,1,0-1.232,1.231A1.232,1.232,0,0,0,201.421,99.074Z" fill="#fff"/>
      <path id="Path_37" data-name="Path 37" d="M221.666,99.074a1.231,1.231,0,1,0-1.231,1.231A1.231,1.231,0,0,0,221.666,99.074Z" fill="#fff"/>
      <path id="Path_38" data-name="Path 38" d="M241.912,99.074a1.231,1.231,0,1,0-1.231,1.231A1.231,1.231,0,0,0,241.912,99.074Z" fill="#fff"/>
      <path id="Path_39" data-name="Path 39" d="M160.929,117.75a1.231,1.231,0,1,0-1.232,1.231A1.232,1.232,0,0,0,160.929,117.75Z" fill="#fff"/>
      <path id="Path_40" data-name="Path 40" d="M181.175,117.75a1.231,1.231,0,1,0-1.232,1.231A1.232,1.232,0,0,0,181.175,117.75Z" fill="#fff"/>
      <path id="Path_41" data-name="Path 41" d="M201.421,117.75a1.232,1.232,0,1,0-1.232,1.231A1.232,1.232,0,0,0,201.421,117.75Z" fill="#fff"/>
      <path id="Path_42" data-name="Path 42" d="M221.666,117.75a1.231,1.231,0,1,0-1.231,1.231A1.231,1.231,0,0,0,221.666,117.75Z" fill="#fff"/>
      <path id="Path_43" data-name="Path 43" d="M241.912,117.75a1.231,1.231,0,1,0-1.231,1.231A1.231,1.231,0,0,0,241.912,117.75Z" fill="#fff"/>
    </g>
  </g>
</svg>
