<svg xmlns="http://www.w3.org/2000/svg" width="46" height="46" viewBox="0 0 46 46">
  <g id="feed" transform="translate(-783 -13669)">
    <g id="Group_143" data-name="Group 143">
      <circle id="Ellipse_11" data-name="Ellipse 11" cx="23" cy="23" r="23" transform="translate(783 13669)" fill="#dd4b39"/>
      <g id="Group_142" data-name="Group 142">
        <circle id="Ellipse_13" data-name="Ellipse 13" cx="18.5" cy="18.5" r="18.5" transform="translate(790 13677)" fill="#fff" opacity="0.15"/>
        <circle id="Ellipse_12" data-name="Ellipse 12" cx="14.5" cy="14.5" r="14.5" transform="translate(796 13684)" fill="#fff" opacity="0.15"/>
      </g>
    </g>
    <g id="Group_157" data-name="Group 157" transform="translate(794 13680)">
      <path id="Path_61" data-name="Path 61" d="M0,0H24V24H0Z" fill="none"/>
      <path id="Path_62" data-name="Path 62" d="M3,3A18,18,0,0,1,21,21H18A15,15,0,0,0,3,6Zm0,7A11,11,0,0,1,14,21H11a8,8,0,0,0-8-8Zm0,7a4,4,0,0,1,4,4H3Z" fill="#fff"/>
    </g>
  </g>
</svg>
