<svg id="small-medium" xmlns="http://www.w3.org/2000/svg" width="43.196" height="43.196" viewBox="0 0 43.196 43.196">
  <path id="Path_8" data-name="Path 8" d="M0,0H43.2V43.2H0Z" fill="none"/>
  <path id="Path_9" data-name="Path 9" d="M11,8.2V2.8A1.8,1.8,0,0,1,12.8,1H27.2A1.8,1.8,0,0,1,29,2.8V8.2h7.2A1.8,1.8,0,0,1,38,10V35.2A1.8,1.8,0,0,1,36.2,37H3.8A1.8,1.8,0,0,1,2,35.2V10A1.8,1.8,0,0,1,3.8,8.2Zm-5.4,18v7.2H34.4V26.2ZM18.2,19v3.6h3.6V19ZM14.6,4.6V8.2H25.4V4.6Z" transform="translate(1.6 0.8)" fill="#0141c9"/>
</svg>
