<svg xmlns="http://www.w3.org/2000/svg" width="91.781" height="16.599" viewBox="0 0 91.781 16.599">
  <g id="Group_138" data-name="Group 138" transform="translate(-360 -13603.844)">
    <g id="Group_133" data-name="Group 133" transform="translate(435.183 13603.844)">
      <path id="Path_47" data-name="Path 47" d="M0,0H16.6V16.6H0Z" fill="none"/>
      <path id="Path_48" data-name="Path 48" d="M8.48,12.783,3.6,15.513,4.692,10.03l-4.1-3.8,5.552-.658L8.48.5l2.342,5.076,5.552.658-4.1,3.8,1.089,5.483Z" transform="translate(-0.181 -0.154)" fill="#ffb114"/>
    </g>
    <g id="Group_134" data-name="Group 134" transform="translate(416.387 13603.844)">
      <path id="Path_47-2" data-name="Path 47" d="M0,0H16.6V16.6H0Z" fill="none"/>
      <path id="Path_48-2" data-name="Path 48" d="M8.48,12.783,3.6,15.513,4.692,10.03l-4.1-3.8,5.552-.658L8.48.5l2.342,5.076,5.552.658-4.1,3.8,1.089,5.483Z" transform="translate(-0.181 -0.154)" fill="#ffb114"/>
    </g>
    <g id="Group_135" data-name="Group 135" transform="translate(397.591 13603.844)">
      <path id="Path_47-3" data-name="Path 47" d="M0,0H16.6V16.6H0Z" fill="none"/>
      <path id="Path_48-3" data-name="Path 48" d="M8.48,12.783,3.6,15.513,4.692,10.03l-4.1-3.8,5.552-.658L8.48.5l2.342,5.076,5.552.658-4.1,3.8,1.089,5.483Z" transform="translate(-0.181 -0.154)" fill="#ffb114"/>
    </g>
    <g id="Group_136" data-name="Group 136" transform="translate(378.796 13603.844)">
      <path id="Path_47-4" data-name="Path 47" d="M0,0H16.6V16.6H0Z" fill="none"/>
      <path id="Path_48-4" data-name="Path 48" d="M8.48,12.783,3.6,15.513,4.692,10.03l-4.1-3.8,5.552-.658L8.48.5l2.342,5.076,5.552.658-4.1,3.8,1.089,5.483Z" transform="translate(-0.181 -0.154)" fill="#ffb114"/>
    </g>
    <g id="Group_137" data-name="Group 137" transform="translate(360 13603.844)">
      <path id="Path_47-5" data-name="Path 47" d="M0,0H16.6V16.6H0Z" fill="none"/>
      <path id="Path_48-5" data-name="Path 48" d="M8.48,12.783,3.6,15.513,4.692,10.03l-4.1-3.8,5.552-.658L8.48.5l2.342,5.076,5.552.658-4.1,3.8,1.089,5.483Z" transform="translate(-0.181 -0.154)" fill="#ffb114"/>
    </g>
  </g>
</svg>
