<svg id="startups" xmlns="http://www.w3.org/2000/svg" width="43.196" height="43.196" viewBox="0 0 43.196 43.196">
  <path id="Path_10" data-name="Path 10" d="M0,0H43.2V43.2H0Z" fill="none"/>
  <path id="Path_11" data-name="Path 11" d="M7.08,27.215a23.513,23.513,0,0,1-.594-5.272c0-9.158,5.225-16.983,12.6-20.126,7.374,3.143,12.6,10.968,12.6,20.126a23.476,23.476,0,0,1-.594,5.272l3.636,3.233a.9.9,0,0,1,.175,1.134l-4.424,7.372a.9.9,0,0,1-1.407.173L25.012,35.07a1.8,1.8,0,0,0-1.272-.527H14.431a1.8,1.8,0,0,0-1.272.527L9.1,39.127a.9.9,0,0,1-1.407-.173L3.27,31.584a.9.9,0,0,1,.175-1.136Zm12-5.272a3.6,3.6,0,1,0-3.6-3.6A3.6,3.6,0,0,0,19.085,21.944Z" transform="translate(2.513 1.454)" fill="#0141c9"/>
</svg>
