<svg xmlns="http://www.w3.org/2000/svg" width="46" height="46" viewBox="0 0 46 46">
  <g id="twitter" transform="translate(-783 -13669)">
    <g id="Group_143" data-name="Group 143">
      <circle id="Ellipse_11" data-name="Ellipse 11" cx="23" cy="23" r="23" transform="translate(783 13669)" fill="#1da1f2"/>
      <g id="Group_142" data-name="Group 142">
        <circle id="Ellipse_13" data-name="Ellipse 13" cx="18.5" cy="18.5" r="18.5" transform="translate(790 13677)" fill="#fff" opacity="0.15"/>
        <circle id="Ellipse_12" data-name="Ellipse 12" cx="14.5" cy="14.5" r="14.5" transform="translate(796 13684)" fill="#fff" opacity="0.15"/>
      </g>
    </g>
    <g id="Group_153" data-name="Group 153" transform="translate(794 13680)">
      <path id="Path_53" data-name="Path 53" d="M0,0H24V24H0Z" fill="none"/>
      <path id="Path_54" data-name="Path 54" d="M22.162,5.656a8.384,8.384,0,0,1-2.4.658A4.2,4.2,0,0,0,21.6,4a8.358,8.358,0,0,1-2.656,1.015,4.182,4.182,0,0,0-7.126,3.814A11.874,11.874,0,0,1,3.2,4.459a4.188,4.188,0,0,0,1.294,5.584A4.168,4.168,0,0,1,2.6,9.52v.052a4.185,4.185,0,0,0,3.354,4.1,4.21,4.21,0,0,1-1.889.072A4.185,4.185,0,0,0,7.97,16.65a8.394,8.394,0,0,1-6.191,1.732,11.83,11.83,0,0,0,6.41,1.88,11.819,11.819,0,0,0,11.9-11.9c0-.18,0-.362-.013-.54a8.5,8.5,0,0,0,2.087-2.165Z" fill="#fff"/>
    </g>
  </g>
</svg>
