<svg xmlns="http://www.w3.org/2000/svg" width="46" height="46" viewBox="0 0 46 46">
  <g id="youtube" transform="translate(-783 -13669)">
    <g id="Group_143" data-name="Group 143">
      <circle id="Ellipse_11" data-name="Ellipse 11" cx="23" cy="23" r="23" transform="translate(783 13669)" fill="red"/>
      <g id="Group_142" data-name="Group 142">
        <circle id="Ellipse_13" data-name="Ellipse 13" cx="18.5" cy="18.5" r="18.5" transform="translate(790 13677)" fill="#fff" opacity="0.15"/>
        <circle id="Ellipse_12" data-name="Ellipse 12" cx="14.5" cy="14.5" r="14.5" transform="translate(796 13684)" fill="#fff" opacity="0.15"/>
      </g>
    </g>
    <g id="Group_152" data-name="Group 152" transform="translate(794 13680)">
      <path id="Path_51" data-name="Path 51" d="M0,0H24V24H0Z" fill="none"/>
      <path id="Path_52" data-name="Path 52" d="M21.543,6.5A31.058,31.058,0,0,1,22,12a31.058,31.058,0,0,1-.457,5.5A2.811,2.811,0,0,1,19.6,19.524C17.9,20,12,20,12,20s-5.893,0-7.605-.476A2.811,2.811,0,0,1,2.457,17.5,31.058,31.058,0,0,1,2,12a31.058,31.058,0,0,1,.457-5.5A2.811,2.811,0,0,1,4.395,4.476C6.107,4,12,4,12,4s5.9,0,7.6.476A2.811,2.811,0,0,1,21.543,6.5ZM10,15.5,16,12,10,8.5Z" fill="#fff"/>
    </g>
  </g>
</svg>
